<svg aria-hidden="true" style="position: absolute; width: 0; height: 0; overflow: hidden;" version="1.1" xmlns="http://www.w3.org/2000/svg" xmlns:xlink="http://www.w3.org/1999/xlink">
<defs>
<symbol id="icon-cart" viewBox="0 0 512 512">
<title>cart</title>
<path d="M510.624 86.4l-46.624 185.6c0 2.224-0.448 4.32-1.248 6.224-1.632 3.84-4.688 6.912-8.512 8.528-1.92 0.816-4.032 1.248-6.24 1.248h-304l12.8 64h275.2c8.848 0 16 7.152 16 16s-7.152 16-16 16h-288c-8.848 0-16-7.152-16-16l-60.8-304h-51.2c-8.832 0-16-7.168-16-16s7.168-16 16-16h64c8.848 0 16 7.168 16 16l3.2 16h396.8c8.848 0 16 7.168 16 16 0 2.288-0.512 4.432-1.376 6.4zM137.6 256h54.4v-160h-86.4l32 160zM288 96h-80v160h80v-160zM384 96h-80v160h80v-160zM400 96v160h36.048l40.528-160h-76.576zM176 416c26.512 0 48 21.504 48 48s-21.488 48-48 48-48-21.504-48-48 21.488-48 48-48zM176 480c8.848 0 16-7.152 16-16s-7.152-16-16-16-16 7.152-16 16 7.152 16 16 16zM400 416c26.512 0 48 21.504 48 48s-21.488 48-48 48-48-21.504-48-48 21.488-48 48-48zM400 480c8.848 0 16-7.152 16-16s-7.152-16-16-16-16 7.152-16 16 7.152 16 16 16z"></path>
</symbol>
<symbol id="icon-search" viewBox="0 0 512 512">
<title>search</title>
<path d="M496.131 435.698l-121.276-103.147c-12.537-11.283-25.945-16.463-36.776-15.963 28.628-33.534 45.921-77.039 45.921-124.588 0-106.039-85.961-192-192-192s-192 85.961-192 192 85.961 192 192 192c47.549 0 91.054-17.293 124.588-45.922-0.5 10.831 4.68 24.239 15.963 36.776l103.147 121.276c17.661 19.623 46.511 21.277 64.11 3.678s15.946-46.449-3.677-64.11zM192 320c-70.692 0-128-57.308-128-128s57.308-128 128-128 128 57.308 128 128-57.307 128-128 128z"></path>
</symbol>
<symbol id="icon-instagram" viewBox="0 0 512 512">
<title>instagram</title>
<path d="M256 46.1c68.4 0 76.5 0.3 103.4 1.5 25 1.1 38.5 5.3 47.5 8.8 11.9 4.6 20.5 10.2 29.4 19.1 9 9 14.5 17.5 19.2 29.4 3.5 9 7.7 22.6 8.8 47.5 1.2 27 1.5 35.1 1.5 103.4s-0.3 76.5-1.5 103.4c-1.1 25-5.3 38.5-8.8 47.5-4.6 11.9-10.2 20.5-19.1 29.4-9 9-17.5 14.5-29.4 19.2-9 3.5-22.6 7.7-47.5 8.8-27 1.2-35.1 1.5-103.4 1.5s-76.5-0.3-103.4-1.5c-25-1.1-38.5-5.3-47.5-8.8-11.9-4.6-20.5-10.2-29.4-19.1-9-9-14.5-17.5-19.2-29.4-3.5-9-7.7-22.6-8.8-47.5-1.2-27-1.5-35.1-1.5-103.4s0.3-76.5 1.5-103.4c1.1-25 5.3-38.5 8.8-47.5 4.6-11.9 10.2-20.5 19.1-29.4 9-9 17.5-14.5 29.4-19.2 9-3.5 22.6-7.7 47.5-8.8 26.9-1.2 35-1.5 103.4-1.5zM256 0c-69.5 0-78.2 0.3-105.5 1.5-27.2 1.2-45.9 5.6-62.1 11.9-16.9 6.6-31.2 15.3-45.4 29.6-14.3 14.2-23 28.5-29.6 45.3-6.3 16.3-10.7 34.9-11.9 62.1-1.2 27.4-1.5 36.1-1.5 105.6s0.3 78.2 1.5 105.5c1.2 27.2 5.6 45.9 11.9 62.1 6.6 16.9 15.3 31.2 29.6 45.4 14.2 14.2 28.5 23 45.3 29.5 16.3 6.3 34.9 10.7 62.1 11.9 27.3 1.2 36 1.5 105.5 1.5s78.2-0.3 105.5-1.5c27.2-1.2 45.9-5.6 62.1-11.9 16.8-6.5 31.1-15.3 45.3-29.5s23-28.5 29.5-45.3c6.3-16.3 10.7-34.9 11.9-62.1 1.2-27.3 1.5-36 1.5-105.5s-0.3-78.2-1.5-105.5c-1.2-27.2-5.6-45.9-11.9-62.1-6.3-17-15-31.3-29.3-45.5-14.2-14.2-28.5-23-45.3-29.5-16.3-6.3-34.9-10.7-62.1-11.9-27.4-1.3-36.1-1.6-105.6-1.6v0z"></path>
<path d="M256 124.5c-72.6 0-131.5 58.9-131.5 131.5s58.9 131.5 131.5 131.5 131.5-58.9 131.5-131.5c0-72.6-58.9-131.5-131.5-131.5zM256 341.3c-47.1 0-85.3-38.2-85.3-85.3s38.2-85.3 85.3-85.3c47.1 0 85.3 38.2 85.3 85.3s-38.2 85.3-85.3 85.3z"></path>
<path d="M423.4 119.3c0 16.955-13.745 30.7-30.7 30.7s-30.7-13.745-30.7-30.7c0-16.955 13.745-30.7 30.7-30.7s30.7 13.745 30.7 30.7z"></path>
</symbol>
<symbol id="icon-twitter" viewBox="0 0 512 512">
<title>twitter</title>
<path d="M512 113.2c-18.8 8.4-39.1 14-60.3 16.5 21.7-13 38.3-33.6 46.2-58.1-20.3 12-42.8 20.8-66.7 25.5-19.2-20.4-46.5-33.1-76.7-33.1-58 0-105 47-105 105 0 8.2 0.9 16.2 2.7 23.9-87.3-4.4-164.7-46.2-216.5-109.8-9 15.5-14.2 33.6-14.2 52.8 0 36.4 18.5 68.6 46.7 87.4-17.2-0.5-33.4-5.3-47.6-13.1 0 0.4 0 0.9 0 1.3 0 50.9 36.2 93.4 84.3 103-8.8 2.4-18.1 3.7-27.7 3.7-6.8 0-13.3-0.7-19.8-1.9 13.4 41.7 52.2 72.1 98.1 73-36 28.2-81.2 45-130.5 45-8.5 0-16.8-0.5-25.1-1.5 46.6 29.9 101.8 47.2 161.1 47.2 193.2 0 298.9-160.1 298.9-298.9 0-4.6-0.1-9.1-0.3-13.6 20.5-14.7 38.3-33.2 52.4-54.3z"></path>
</symbol>
<symbol id="icon-pinterest" viewBox="0 0 512 512">
<title>pinterest</title>
<path d="M220.595 338.611c-13.465 70.502-29.875 138.087-78.541 173.389-15.001-106.547 22.042-186.547 39.27-271.488-29.363-49.408 3.533-148.787 65.408-124.288 76.16 30.105-65.945 183.603 29.44 202.803 99.61 19.993 140.262-172.8 78.49-235.494-89.216-90.573-259.738-2.125-238.745 127.539 5.094 31.693 37.837 41.293 13.082 85.043-57.114-12.647-74.163-57.702-71.962-117.76 3.533-98.304 88.294-167.091 173.338-176.64 107.546-12.057 208.487 39.501 222.439 140.647 15.693 114.202-48.538 237.901-163.559 228.992-31.181-2.432-44.237-17.894-68.659-32.743z"></path>
</symbol>
<symbol id="icon-facebook" viewBox="0 0 301 512">
<title>facebook</title>
<path d="M274 3.429v75.428h-44.857c-35.143 0-41.715 16.857-41.715 41.143v54h83.714l-11.143 84.572h-72.572v216.857h-87.428v-216.857h-72.857v-84.572h72.857v-62.285c0-72.285 44.285-111.715 108.857-111.715 30.857 0 57.428 2.285 65.143 3.429z"></path>
</symbol>
</defs>
</svg>
