<svg xmlns="http://www.w3.org/2000/svg" xmlns:xlink="http://www.w3.org/1999/xlink" width="22" height="22" viewBox="0 0 22 22">
    <defs>
        <path id="a" d="M13.648 3.5l2.87 2.87c.121.122.121.32 0 .44l-6.95 6.952-2.955.327a.62.62 0 0 1-.684-.684l.328-2.954L13.208 3.5c.121-.12.319-.12.44 0zm5.156-.729L17.25 1.218a1.245 1.245 0 0 0-1.757 0l-1.127 1.127a.311.311 0 0 0 0 .439l2.87 2.87c.122.122.32.122.44 0l1.127-1.126a1.245 1.245 0 0 0 0-1.757zm-5.748 9.1v3.24H2.87V4.926h7.315a.391.391 0 0 0 .27-.111l1.273-1.274a.382.382 0 0 0-.27-.652H2.36c-.843 0-1.528.684-1.528 1.528V15.62c0 .844.685 1.528 1.528 1.528h11.204c.843 0 1.528-.684 1.528-1.528v-5.022c0-.34-.411-.51-.653-.27L13.167 11.6a.391.391 0 0 0-.111.27z"/>
    </defs>
    <g fill="none" fill-rule="evenodd" transform="translate(1 2)">
        <mask id="b" fill="#fff">
            <use xlink:href="#a"/>
        </mask>
        <g fill="#CCD1D9" fill-rule="nonzero" mask="url(#b)">
            <path d="M-1-2h22v22H-1z"/>
        </g>
    </g>
</svg>
